<mxfile host="app.diagrams.net" modified="2024-02-22T22:56:12.982Z" agent="Mozilla/5.0 (X11; Linux x86_64; rv:122.0) Gecko/20100101 Firefox/122.0" etag="_S8peIois1EdjwDt5i37" version="23.1.5" type="device">
  <diagram name="Page-1" id="K6qlPzQ6O-g7PxLVw6sW">
    <mxGraphModel dx="1404" dy="551" grid="1" gridSize="10" guides="1" tooltips="1" connect="1" arrows="1" fold="1" page="1" pageScale="1" pageWidth="850" pageHeight="1100" math="0" shadow="0">
      <root>
        <mxCell id="0" />
        <mxCell id="1" parent="0" />
        <mxCell id="cASdu_Fl3ZIhA2O5h1DE-18" value="" style="edgeStyle=orthogonalEdgeStyle;rounded=0;orthogonalLoop=1;jettySize=auto;html=1;" parent="1" source="cASdu_Fl3ZIhA2O5h1DE-5" target="cASdu_Fl3ZIhA2O5h1DE-6" edge="1">
          <mxGeometry relative="1" as="geometry" />
        </mxCell>
        <mxCell id="cASdu_Fl3ZIhA2O5h1DE-5" value="ObsidianLoader" style="rounded=0;whiteSpace=wrap;html=1;fillColor=#dae8fc;strokeColor=#6c8ebf;" parent="1" vertex="1">
          <mxGeometry x="130" y="10" width="120" height="60" as="geometry" />
        </mxCell>
        <mxCell id="cASdu_Fl3ZIhA2O5h1DE-19" value="" style="edgeStyle=orthogonalEdgeStyle;rounded=0;orthogonalLoop=1;jettySize=auto;html=1;" parent="1" source="cASdu_Fl3ZIhA2O5h1DE-6" target="cASdu_Fl3ZIhA2O5h1DE-7" edge="1">
          <mxGeometry relative="1" as="geometry" />
        </mxCell>
        <mxCell id="cASdu_Fl3ZIhA2O5h1DE-6" value="Google re2 + some str magic" style="rounded=0;whiteSpace=wrap;html=1;fillColor=#dae8fc;strokeColor=#6c8ebf;" parent="1" vertex="1">
          <mxGeometry x="330" y="10" width="120" height="60" as="geometry" />
        </mxCell>
        <mxCell id="cASdu_Fl3ZIhA2O5h1DE-20" value="" style="edgeStyle=orthogonalEdgeStyle;rounded=0;orthogonalLoop=1;jettySize=auto;html=1;" parent="1" source="cASdu_Fl3ZIhA2O5h1DE-7" target="cASdu_Fl3ZIhA2O5h1DE-8" edge="1">
          <mxGeometry relative="1" as="geometry" />
        </mxCell>
        <mxCell id="cASdu_Fl3ZIhA2O5h1DE-7" value="MarkdownTextSplitter" style="rounded=0;whiteSpace=wrap;html=1;fillColor=#dae8fc;strokeColor=#6c8ebf;" parent="1" vertex="1">
          <mxGeometry x="530" y="10" width="120" height="60" as="geometry" />
        </mxCell>
        <mxCell id="cASdu_Fl3ZIhA2O5h1DE-21" value="" style="edgeStyle=orthogonalEdgeStyle;rounded=0;orthogonalLoop=1;jettySize=auto;html=1;" parent="1" source="cASdu_Fl3ZIhA2O5h1DE-8" target="cASdu_Fl3ZIhA2O5h1DE-9" edge="1">
          <mxGeometry relative="1" as="geometry" />
        </mxCell>
        <mxCell id="cASdu_Fl3ZIhA2O5h1DE-8" value="SentenceTransformers" style="rounded=0;whiteSpace=wrap;html=1;fillColor=#dae8fc;strokeColor=#6c8ebf;" parent="1" vertex="1">
          <mxGeometry x="730" y="10" width="120" height="60" as="geometry" />
        </mxCell>
        <mxCell id="cASdu_Fl3ZIhA2O5h1DE-22" value="" style="edgeStyle=orthogonalEdgeStyle;rounded=0;orthogonalLoop=1;jettySize=auto;html=1;" parent="1" source="cASdu_Fl3ZIhA2O5h1DE-9" target="cASdu_Fl3ZIhA2O5h1DE-10" edge="1">
          <mxGeometry relative="1" as="geometry" />
        </mxCell>
        <mxCell id="cASdu_Fl3ZIhA2O5h1DE-24" style="edgeStyle=orthogonalEdgeStyle;rounded=0;orthogonalLoop=1;jettySize=auto;html=1;exitX=1;exitY=0.5;exitDx=0;exitDy=0;entryX=1;entryY=0.5;entryDx=0;entryDy=0;" parent="1" source="cASdu_Fl3ZIhA2O5h1DE-9" target="cASdu_Fl3ZIhA2O5h1DE-11" edge="1">
          <mxGeometry relative="1" as="geometry" />
        </mxCell>
        <mxCell id="cASdu_Fl3ZIhA2O5h1DE-26" style="edgeStyle=orthogonalEdgeStyle;rounded=0;orthogonalLoop=1;jettySize=auto;html=1;exitX=0;exitY=0.5;exitDx=0;exitDy=0;entryX=1;entryY=0.5;entryDx=0;entryDy=0;" parent="1" source="cASdu_Fl3ZIhA2O5h1DE-12" target="cASdu_Fl3ZIhA2O5h1DE-14" edge="1">
          <mxGeometry relative="1" as="geometry" />
        </mxCell>
        <mxCell id="cASdu_Fl3ZIhA2O5h1DE-27" value="" style="edgeStyle=orthogonalEdgeStyle;rounded=0;orthogonalLoop=1;jettySize=auto;html=1;" parent="1" source="cASdu_Fl3ZIhA2O5h1DE-9" target="cASdu_Fl3ZIhA2O5h1DE-12" edge="1">
          <mxGeometry relative="1" as="geometry" />
        </mxCell>
        <mxCell id="cASdu_Fl3ZIhA2O5h1DE-9" value="Chroma&lt;br&gt;Vector Store" style="rounded=0;whiteSpace=wrap;html=1;fillColor=#d5e8d4;strokeColor=#82b366;" parent="1" vertex="1">
          <mxGeometry x="730" y="130" width="120" height="60" as="geometry" />
        </mxCell>
        <mxCell id="cASdu_Fl3ZIhA2O5h1DE-10" value="Similarity search retrieval" style="rounded=0;whiteSpace=wrap;html=1;fillColor=#f8cecc;strokeColor=#b85450;" parent="1" vertex="1">
          <mxGeometry x="730" y="230" width="120" height="60" as="geometry" />
        </mxCell>
        <mxCell id="cASdu_Fl3ZIhA2O5h1DE-32" value="" style="edgeStyle=orthogonalEdgeStyle;rounded=0;orthogonalLoop=1;jettySize=auto;html=1;" parent="1" source="cASdu_Fl3ZIhA2O5h1DE-11" target="cASdu_Fl3ZIhA2O5h1DE-16" edge="1">
          <mxGeometry relative="1" as="geometry" />
        </mxCell>
        <mxCell id="cASdu_Fl3ZIhA2O5h1DE-11" value="Maximum marginal relevance retrieval" style="rounded=0;whiteSpace=wrap;html=1;fillColor=#d5e8d4;strokeColor=#82b366;" parent="1" vertex="1">
          <mxGeometry x="730" y="330" width="120" height="60" as="geometry" />
        </mxCell>
        <mxCell id="cASdu_Fl3ZIhA2O5h1DE-30" value="" style="edgeStyle=orthogonalEdgeStyle;rounded=0;orthogonalLoop=1;jettySize=auto;html=1;" parent="1" source="cASdu_Fl3ZIhA2O5h1DE-12" target="cASdu_Fl3ZIhA2O5h1DE-13" edge="1">
          <mxGeometry relative="1" as="geometry" />
        </mxCell>
        <mxCell id="cASdu_Fl3ZIhA2O5h1DE-31" style="edgeStyle=orthogonalEdgeStyle;rounded=0;orthogonalLoop=1;jettySize=auto;html=1;exitX=0.5;exitY=1;exitDx=0;exitDy=0;entryX=0.5;entryY=0;entryDx=0;entryDy=0;" parent="1" source="cASdu_Fl3ZIhA2O5h1DE-12" target="cASdu_Fl3ZIhA2O5h1DE-16" edge="1">
          <mxGeometry relative="1" as="geometry" />
        </mxCell>
        <mxCell id="cASdu_Fl3ZIhA2O5h1DE-12" value="Mistral-7B-OpenOrca" style="rounded=0;whiteSpace=wrap;html=1;fillColor=#d5e8d4;strokeColor=#82b366;" parent="1" vertex="1">
          <mxGeometry x="530" y="130" width="120" height="60" as="geometry" />
        </mxCell>
        <mxCell id="cASdu_Fl3ZIhA2O5h1DE-13" value="Self-query retrieval" style="rounded=0;whiteSpace=wrap;html=1;fillColor=#f8cecc;strokeColor=#b85450;" parent="1" vertex="1">
          <mxGeometry x="360" y="130" width="120" height="60" as="geometry" />
        </mxCell>
        <mxCell id="cASdu_Fl3ZIhA2O5h1DE-14" value="Contextual compression retrieval" style="rounded=0;whiteSpace=wrap;html=1;fillColor=#f8cecc;strokeColor=#b85450;" parent="1" vertex="1">
          <mxGeometry x="360" y="210" width="120" height="60" as="geometry" />
        </mxCell>
        <mxCell id="cASdu_Fl3ZIhA2O5h1DE-16" value="Q&amp;amp;A Chatbot with RetrievalQA " style="rounded=0;whiteSpace=wrap;html=1;fillColor=#d5e8d4;strokeColor=#82b366;" parent="1" vertex="1">
          <mxGeometry x="530" y="330" width="120" height="60" as="geometry" />
        </mxCell>
        <mxCell id="cASdu_Fl3ZIhA2O5h1DE-37" value="Loaded documents" style="text;strokeColor=none;align=center;fillColor=none;html=1;verticalAlign=middle;whiteSpace=wrap;rounded=0;" parent="1" vertex="1">
          <mxGeometry x="260" width="60" height="30" as="geometry" />
        </mxCell>
        <mxCell id="cASdu_Fl3ZIhA2O5h1DE-38" value="Text chunks" style="text;strokeColor=none;align=center;fillColor=none;html=1;verticalAlign=middle;whiteSpace=wrap;rounded=0;" parent="1" vertex="1">
          <mxGeometry x="660" width="60" height="30" as="geometry" />
        </mxCell>
        <mxCell id="cASdu_Fl3ZIhA2O5h1DE-42" value="" style="edgeStyle=orthogonalEdgeStyle;rounded=0;orthogonalLoop=1;jettySize=auto;html=1;" parent="1" source="cASdu_Fl3ZIhA2O5h1DE-41" target="cASdu_Fl3ZIhA2O5h1DE-5" edge="1">
          <mxGeometry relative="1" as="geometry" />
        </mxCell>
        <mxCell id="cASdu_Fl3ZIhA2O5h1DE-41" value="500 Obsidian documents" style="shape=cylinder3;whiteSpace=wrap;html=1;boundedLbl=1;backgroundOutline=1;size=15;fillColor=#e1d5e7;strokeColor=#9673a6;" parent="1" vertex="1">
          <mxGeometry width="80" height="80" as="geometry" />
        </mxCell>
        <mxCell id="cASdu_Fl3ZIhA2O5h1DE-43" value="Cleaned documents" style="text;strokeColor=none;align=center;fillColor=none;html=1;verticalAlign=middle;whiteSpace=wrap;rounded=0;" parent="1" vertex="1">
          <mxGeometry x="460" width="60" height="30" as="geometry" />
        </mxCell>
        <mxCell id="cASdu_Fl3ZIhA2O5h1DE-44" value="Sentence embeddings" style="text;strokeColor=none;align=center;fillColor=none;html=1;verticalAlign=middle;whiteSpace=wrap;rounded=0;" parent="1" vertex="1">
          <mxGeometry x="800" y="85" width="60" height="30" as="geometry" />
        </mxCell>
        <mxCell id="cASdu_Fl3ZIhA2O5h1DE-48" value="Legend" style="swimlane;whiteSpace=wrap;html=1;" parent="1" vertex="1">
          <mxGeometry y="150" width="140" height="240" as="geometry" />
        </mxCell>
        <mxCell id="cASdu_Fl3ZIhA2O5h1DE-45" value="Preprocessing" style="rounded=0;whiteSpace=wrap;html=1;fillColor=#dae8fc;strokeColor=#6c8ebf;" parent="cASdu_Fl3ZIhA2O5h1DE-48" vertex="1">
          <mxGeometry x="10" y="30" width="120" height="60" as="geometry" />
        </mxCell>
        <mxCell id="cASdu_Fl3ZIhA2O5h1DE-46" value="Dead-ends" style="rounded=0;whiteSpace=wrap;html=1;fillColor=#f8cecc;strokeColor=#b85450;" parent="cASdu_Fl3ZIhA2O5h1DE-48" vertex="1">
          <mxGeometry x="10" y="100" width="120" height="60" as="geometry" />
        </mxCell>
        <mxCell id="cASdu_Fl3ZIhA2O5h1DE-47" value="What ended up working" style="rounded=0;whiteSpace=wrap;html=1;fillColor=#d5e8d4;strokeColor=#82b366;" parent="cASdu_Fl3ZIhA2O5h1DE-48" vertex="1">
          <mxGeometry x="10" y="170" width="120" height="60" as="geometry" />
        </mxCell>
      </root>
    </mxGraphModel>
  </diagram>
</mxfile>
